<?xml version="1.0" encoding="utf-8" standalone="no"?>
<!DOCTYPE svg PUBLIC "-//W3C//DTD SVG 1.1//EN"
  "http://www.w3.org/Graphics/SVG/1.1/DTD/svg11.dtd">
<svg height="345.6pt" version="1.1" viewBox="0 0 460.8 345.6" width="460.8pt" xmlns="http://www.w3.org/2000/svg" xmlns:xlink="http://www.w3.org/1999/xlink">
 <metadata>
  <rdf:RDF xmlns:cc="http://creativecommons.org/ns#" xmlns:dc="http://purl.org/dc/elements/1.1/" xmlns:rdf="http://www.w3.org/1999/02/22-rdf-syntax-ns#">
   <cc:Work>
    <dc:type rdf:resource="http://purl.org/dc/dcmitype/StillImage"/>
    <dc:date>2023-02-10T15:49:33.843755</dc:date>
    <dc:format>image/svg+xml</dc:format>
    <dc:creator>
     <cc:Agent>
      <dc:title>Matplotlib v3.4.2, https://matplotlib.org/</dc:title>
     </cc:Agent>
    </dc:creator>
   </cc:Work>
  </rdf:RDF>
 </metadata>
 <defs>
  <style type="text/css">*{stroke-linecap:butt;stroke-linejoin:round;}</style>
 </defs>
 <g id="figure_1">
  <g id="patch_1">
   <path d="M 0 345.6 
L 460.8 345.6 
L 460.8 0 
L 0 0 
z
" style="fill:#ffffff;"/>
  </g>
  <g id="axes_1">
   <g id="patch_2">
    <path d="M 57.6 307.584 
L 414.72 307.584 
L 414.72 41.472 
L 57.6 41.472 
z
" style="fill:#ffffff;"/>
   </g>
   <g id="matplotlib.axis_1">
    <g id="xtick_1">
     <g id="line2d_1">
      <defs>
       <path d="M 0 0 
L 0 3.5 
" id="m837564ec52" style="stroke:#000000;stroke-width:0.8;"/>
      </defs>
      <g>
       <use style="stroke:#000000;stroke-width:0.8;" x="82.850909" xlink:href="#m837564ec52" y="307.584"/>
      </g>
     </g>
     <g id="text_1">
      <!-- 25000 -->
      <g transform="translate(66.944659 322.182437)scale(0.1 -0.1)">
       <defs>
        <path d="M 1228 531 
L 3431 531 
L 3431 0 
L 469 0 
L 469 531 
Q 828 903 1448 1529 
Q 2069 2156 2228 2338 
Q 2531 2678 2651 2914 
Q 2772 3150 2772 3378 
Q 2772 3750 2511 3984 
Q 2250 4219 1831 4219 
Q 1534 4219 1204 4116 
Q 875 4013 500 3803 
L 500 4441 
Q 881 4594 1212 4672 
Q 1544 4750 1819 4750 
Q 2544 4750 2975 4387 
Q 3406 4025 3406 3419 
Q 3406 3131 3298 2873 
Q 3191 2616 2906 2266 
Q 2828 2175 2409 1742 
Q 1991 1309 1228 531 
z
" id="DejaVuSans-32" transform="scale(0.015625)"/>
        <path d="M 691 4666 
L 3169 4666 
L 3169 4134 
L 1269 4134 
L 1269 2991 
Q 1406 3038 1543 3061 
Q 1681 3084 1819 3084 
Q 2600 3084 3056 2656 
Q 3513 2228 3513 1497 
Q 3513 744 3044 326 
Q 2575 -91 1722 -91 
Q 1428 -91 1123 -41 
Q 819 9 494 109 
L 494 744 
Q 775 591 1075 516 
Q 1375 441 1709 441 
Q 2250 441 2565 725 
Q 2881 1009 2881 1497 
Q 2881 1984 2565 2268 
Q 2250 2553 1709 2553 
Q 1456 2553 1204 2497 
Q 953 2441 691 2322 
L 691 4666 
z
" id="DejaVuSans-35" transform="scale(0.015625)"/>
        <path d="M 2034 4250 
Q 1547 4250 1301 3770 
Q 1056 3291 1056 2328 
Q 1056 1369 1301 889 
Q 1547 409 2034 409 
Q 2525 409 2770 889 
Q 3016 1369 3016 2328 
Q 3016 3291 2770 3770 
Q 2525 4250 2034 4250 
z
M 2034 4750 
Q 2819 4750 3233 4129 
Q 3647 3509 3647 2328 
Q 3647 1150 3233 529 
Q 2819 -91 2034 -91 
Q 1250 -91 836 529 
Q 422 1150 422 2328 
Q 422 3509 836 4129 
Q 1250 4750 2034 4750 
z
" id="DejaVuSans-30" transform="scale(0.015625)"/>
       </defs>
       <use xlink:href="#DejaVuSans-32"/>
       <use x="63.623047" xlink:href="#DejaVuSans-35"/>
       <use x="127.246094" xlink:href="#DejaVuSans-30"/>
       <use x="190.869141" xlink:href="#DejaVuSans-30"/>
       <use x="254.492188" xlink:href="#DejaVuSans-30"/>
      </g>
     </g>
    </g>
    <g id="xtick_2">
     <g id="line2d_2">
      <g>
       <use style="stroke:#000000;stroke-width:0.8;" x="127.941818" xlink:href="#m837564ec52" y="307.584"/>
      </g>
     </g>
     <g id="text_2">
      <!-- 50000 -->
      <g transform="translate(112.035568 322.182437)scale(0.1 -0.1)">
       <use xlink:href="#DejaVuSans-35"/>
       <use x="63.623047" xlink:href="#DejaVuSans-30"/>
       <use x="127.246094" xlink:href="#DejaVuSans-30"/>
       <use x="190.869141" xlink:href="#DejaVuSans-30"/>
       <use x="254.492188" xlink:href="#DejaVuSans-30"/>
      </g>
     </g>
    </g>
    <g id="xtick_3">
     <g id="line2d_3">
      <g>
       <use style="stroke:#000000;stroke-width:0.8;" x="173.032727" xlink:href="#m837564ec52" y="307.584"/>
      </g>
     </g>
     <g id="text_3">
      <!-- 75000 -->
      <g transform="translate(157.126477 322.182437)scale(0.1 -0.1)">
       <defs>
        <path d="M 525 4666 
L 3525 4666 
L 3525 4397 
L 1831 0 
L 1172 0 
L 2766 4134 
L 525 4134 
L 525 4666 
z
" id="DejaVuSans-37" transform="scale(0.015625)"/>
       </defs>
       <use xlink:href="#DejaVuSans-37"/>
       <use x="63.623047" xlink:href="#DejaVuSans-35"/>
       <use x="127.246094" xlink:href="#DejaVuSans-30"/>
       <use x="190.869141" xlink:href="#DejaVuSans-30"/>
       <use x="254.492188" xlink:href="#DejaVuSans-30"/>
      </g>
     </g>
    </g>
    <g id="xtick_4">
     <g id="line2d_4">
      <g>
       <use style="stroke:#000000;stroke-width:0.8;" x="218.123636" xlink:href="#m837564ec52" y="307.584"/>
      </g>
     </g>
     <g id="text_4">
      <!-- 100000 -->
      <g transform="translate(199.036136 322.182437)scale(0.1 -0.1)">
       <defs>
        <path d="M 794 531 
L 1825 531 
L 1825 4091 
L 703 3866 
L 703 4441 
L 1819 4666 
L 2450 4666 
L 2450 531 
L 3481 531 
L 3481 0 
L 794 0 
L 794 531 
z
" id="DejaVuSans-31" transform="scale(0.015625)"/>
       </defs>
       <use xlink:href="#DejaVuSans-31"/>
       <use x="63.623047" xlink:href="#DejaVuSans-30"/>
       <use x="127.246094" xlink:href="#DejaVuSans-30"/>
       <use x="190.869141" xlink:href="#DejaVuSans-30"/>
       <use x="254.492188" xlink:href="#DejaVuSans-30"/>
       <use x="318.115234" xlink:href="#DejaVuSans-30"/>
      </g>
     </g>
    </g>
    <g id="xtick_5">
     <g id="line2d_5">
      <g>
       <use style="stroke:#000000;stroke-width:0.8;" x="263.214545" xlink:href="#m837564ec52" y="307.584"/>
      </g>
     </g>
     <g id="text_5">
      <!-- 125000 -->
      <g transform="translate(244.127045 322.182437)scale(0.1 -0.1)">
       <use xlink:href="#DejaVuSans-31"/>
       <use x="63.623047" xlink:href="#DejaVuSans-32"/>
       <use x="127.246094" xlink:href="#DejaVuSans-35"/>
       <use x="190.869141" xlink:href="#DejaVuSans-30"/>
       <use x="254.492188" xlink:href="#DejaVuSans-30"/>
       <use x="318.115234" xlink:href="#DejaVuSans-30"/>
      </g>
     </g>
    </g>
    <g id="xtick_6">
     <g id="line2d_6">
      <g>
       <use style="stroke:#000000;stroke-width:0.8;" x="308.305455" xlink:href="#m837564ec52" y="307.584"/>
      </g>
     </g>
     <g id="text_6">
      <!-- 150000 -->
      <g transform="translate(289.217955 322.182437)scale(0.1 -0.1)">
       <use xlink:href="#DejaVuSans-31"/>
       <use x="63.623047" xlink:href="#DejaVuSans-35"/>
       <use x="127.246094" xlink:href="#DejaVuSans-30"/>
       <use x="190.869141" xlink:href="#DejaVuSans-30"/>
       <use x="254.492188" xlink:href="#DejaVuSans-30"/>
       <use x="318.115234" xlink:href="#DejaVuSans-30"/>
      </g>
     </g>
    </g>
    <g id="xtick_7">
     <g id="line2d_7">
      <g>
       <use style="stroke:#000000;stroke-width:0.8;" x="353.396364" xlink:href="#m837564ec52" y="307.584"/>
      </g>
     </g>
     <g id="text_7">
      <!-- 175000 -->
      <g transform="translate(334.308864 322.182437)scale(0.1 -0.1)">
       <use xlink:href="#DejaVuSans-31"/>
       <use x="63.623047" xlink:href="#DejaVuSans-37"/>
       <use x="127.246094" xlink:href="#DejaVuSans-35"/>
       <use x="190.869141" xlink:href="#DejaVuSans-30"/>
       <use x="254.492188" xlink:href="#DejaVuSans-30"/>
       <use x="318.115234" xlink:href="#DejaVuSans-30"/>
      </g>
     </g>
    </g>
    <g id="xtick_8">
     <g id="line2d_8">
      <g>
       <use style="stroke:#000000;stroke-width:0.8;" x="398.487273" xlink:href="#m837564ec52" y="307.584"/>
      </g>
     </g>
     <g id="text_8">
      <!-- 200000 -->
      <g transform="translate(379.399773 322.182437)scale(0.1 -0.1)">
       <use xlink:href="#DejaVuSans-32"/>
       <use x="63.623047" xlink:href="#DejaVuSans-30"/>
       <use x="127.246094" xlink:href="#DejaVuSans-30"/>
       <use x="190.869141" xlink:href="#DejaVuSans-30"/>
       <use x="254.492188" xlink:href="#DejaVuSans-30"/>
       <use x="318.115234" xlink:href="#DejaVuSans-30"/>
      </g>
     </g>
    </g>
    <g id="text_9">
     <!-- Packet Count -->
     <g transform="translate(203.368594 335.860562)scale(0.1 -0.1)">
      <defs>
       <path d="M 1259 4147 
L 1259 2394 
L 2053 2394 
Q 2494 2394 2734 2622 
Q 2975 2850 2975 3272 
Q 2975 3691 2734 3919 
Q 2494 4147 2053 4147 
L 1259 4147 
z
M 628 4666 
L 2053 4666 
Q 2838 4666 3239 4311 
Q 3641 3956 3641 3272 
Q 3641 2581 3239 2228 
Q 2838 1875 2053 1875 
L 1259 1875 
L 1259 0 
L 628 0 
L 628 4666 
z
" id="DejaVuSans-50" transform="scale(0.015625)"/>
       <path d="M 2194 1759 
Q 1497 1759 1228 1600 
Q 959 1441 959 1056 
Q 959 750 1161 570 
Q 1363 391 1709 391 
Q 2188 391 2477 730 
Q 2766 1069 2766 1631 
L 2766 1759 
L 2194 1759 
z
M 3341 1997 
L 3341 0 
L 2766 0 
L 2766 531 
Q 2569 213 2275 61 
Q 1981 -91 1556 -91 
Q 1019 -91 701 211 
Q 384 513 384 1019 
Q 384 1609 779 1909 
Q 1175 2209 1959 2209 
L 2766 2209 
L 2766 2266 
Q 2766 2663 2505 2880 
Q 2244 3097 1772 3097 
Q 1472 3097 1187 3025 
Q 903 2953 641 2809 
L 641 3341 
Q 956 3463 1253 3523 
Q 1550 3584 1831 3584 
Q 2591 3584 2966 3190 
Q 3341 2797 3341 1997 
z
" id="DejaVuSans-61" transform="scale(0.015625)"/>
       <path d="M 3122 3366 
L 3122 2828 
Q 2878 2963 2633 3030 
Q 2388 3097 2138 3097 
Q 1578 3097 1268 2742 
Q 959 2388 959 1747 
Q 959 1106 1268 751 
Q 1578 397 2138 397 
Q 2388 397 2633 464 
Q 2878 531 3122 666 
L 3122 134 
Q 2881 22 2623 -34 
Q 2366 -91 2075 -91 
Q 1284 -91 818 406 
Q 353 903 353 1747 
Q 353 2603 823 3093 
Q 1294 3584 2113 3584 
Q 2378 3584 2631 3529 
Q 2884 3475 3122 3366 
z
" id="DejaVuSans-63" transform="scale(0.015625)"/>
       <path d="M 581 4863 
L 1159 4863 
L 1159 1991 
L 2875 3500 
L 3609 3500 
L 1753 1863 
L 3688 0 
L 2938 0 
L 1159 1709 
L 1159 0 
L 581 0 
L 581 4863 
z
" id="DejaVuSans-6b" transform="scale(0.015625)"/>
       <path d="M 3597 1894 
L 3597 1613 
L 953 1613 
Q 991 1019 1311 708 
Q 1631 397 2203 397 
Q 2534 397 2845 478 
Q 3156 559 3463 722 
L 3463 178 
Q 3153 47 2828 -22 
Q 2503 -91 2169 -91 
Q 1331 -91 842 396 
Q 353 884 353 1716 
Q 353 2575 817 3079 
Q 1281 3584 2069 3584 
Q 2775 3584 3186 3129 
Q 3597 2675 3597 1894 
z
M 3022 2063 
Q 3016 2534 2758 2815 
Q 2500 3097 2075 3097 
Q 1594 3097 1305 2825 
Q 1016 2553 972 2059 
L 3022 2063 
z
" id="DejaVuSans-65" transform="scale(0.015625)"/>
       <path d="M 1172 4494 
L 1172 3500 
L 2356 3500 
L 2356 3053 
L 1172 3053 
L 1172 1153 
Q 1172 725 1289 603 
Q 1406 481 1766 481 
L 2356 481 
L 2356 0 
L 1766 0 
Q 1100 0 847 248 
Q 594 497 594 1153 
L 594 3053 
L 172 3053 
L 172 3500 
L 594 3500 
L 594 4494 
L 1172 4494 
z
" id="DejaVuSans-74" transform="scale(0.015625)"/>
       <path id="DejaVuSans-20" transform="scale(0.015625)"/>
       <path d="M 4122 4306 
L 4122 3641 
Q 3803 3938 3442 4084 
Q 3081 4231 2675 4231 
Q 1875 4231 1450 3742 
Q 1025 3253 1025 2328 
Q 1025 1406 1450 917 
Q 1875 428 2675 428 
Q 3081 428 3442 575 
Q 3803 722 4122 1019 
L 4122 359 
Q 3791 134 3420 21 
Q 3050 -91 2638 -91 
Q 1578 -91 968 557 
Q 359 1206 359 2328 
Q 359 3453 968 4101 
Q 1578 4750 2638 4750 
Q 3056 4750 3426 4639 
Q 3797 4528 4122 4306 
z
" id="DejaVuSans-43" transform="scale(0.015625)"/>
       <path d="M 1959 3097 
Q 1497 3097 1228 2736 
Q 959 2375 959 1747 
Q 959 1119 1226 758 
Q 1494 397 1959 397 
Q 2419 397 2687 759 
Q 2956 1122 2956 1747 
Q 2956 2369 2687 2733 
Q 2419 3097 1959 3097 
z
M 1959 3584 
Q 2709 3584 3137 3096 
Q 3566 2609 3566 1747 
Q 3566 888 3137 398 
Q 2709 -91 1959 -91 
Q 1206 -91 779 398 
Q 353 888 353 1747 
Q 353 2609 779 3096 
Q 1206 3584 1959 3584 
z
" id="DejaVuSans-6f" transform="scale(0.015625)"/>
       <path d="M 544 1381 
L 544 3500 
L 1119 3500 
L 1119 1403 
Q 1119 906 1312 657 
Q 1506 409 1894 409 
Q 2359 409 2629 706 
Q 2900 1003 2900 1516 
L 2900 3500 
L 3475 3500 
L 3475 0 
L 2900 0 
L 2900 538 
Q 2691 219 2414 64 
Q 2138 -91 1772 -91 
Q 1169 -91 856 284 
Q 544 659 544 1381 
z
M 1991 3584 
L 1991 3584 
z
" id="DejaVuSans-75" transform="scale(0.015625)"/>
       <path d="M 3513 2113 
L 3513 0 
L 2938 0 
L 2938 2094 
Q 2938 2591 2744 2837 
Q 2550 3084 2163 3084 
Q 1697 3084 1428 2787 
Q 1159 2491 1159 1978 
L 1159 0 
L 581 0 
L 581 3500 
L 1159 3500 
L 1159 2956 
Q 1366 3272 1645 3428 
Q 1925 3584 2291 3584 
Q 2894 3584 3203 3211 
Q 3513 2838 3513 2113 
z
" id="DejaVuSans-6e" transform="scale(0.015625)"/>
      </defs>
      <use xlink:href="#DejaVuSans-50"/>
      <use x="55.802734" xlink:href="#DejaVuSans-61"/>
      <use x="117.082031" xlink:href="#DejaVuSans-63"/>
      <use x="172.0625" xlink:href="#DejaVuSans-6b"/>
      <use x="226.347656" xlink:href="#DejaVuSans-65"/>
      <use x="287.871094" xlink:href="#DejaVuSans-74"/>
      <use x="327.080078" xlink:href="#DejaVuSans-20"/>
      <use x="358.867188" xlink:href="#DejaVuSans-43"/>
      <use x="428.691406" xlink:href="#DejaVuSans-6f"/>
      <use x="489.873047" xlink:href="#DejaVuSans-75"/>
      <use x="553.251953" xlink:href="#DejaVuSans-6e"/>
      <use x="616.630859" xlink:href="#DejaVuSans-74"/>
     </g>
    </g>
   </g>
   <g id="matplotlib.axis_2">
    <g id="ytick_1">
     <g id="line2d_9">
      <defs>
       <path d="M 0 0 
L -3.5 0 
" id="m94f37df4c4" style="stroke:#000000;stroke-width:0.8;"/>
      </defs>
      <g>
       <use style="stroke:#000000;stroke-width:0.8;" x="57.6" xlink:href="#m94f37df4c4" y="260.55772"/>
      </g>
     </g>
     <g id="text_10">
      <!-- 5 -->
      <g transform="translate(44.2375 264.356939)scale(0.1 -0.1)">
       <use xlink:href="#DejaVuSans-35"/>
      </g>
     </g>
    </g>
    <g id="ytick_2">
     <g id="line2d_10">
      <g>
       <use style="stroke:#000000;stroke-width:0.8;" x="57.6" xlink:href="#m94f37df4c4" y="212.140755"/>
      </g>
     </g>
     <g id="text_11">
      <!-- 10 -->
      <g transform="translate(37.875 215.939974)scale(0.1 -0.1)">
       <use xlink:href="#DejaVuSans-31"/>
       <use x="63.623047" xlink:href="#DejaVuSans-30"/>
      </g>
     </g>
    </g>
    <g id="ytick_3">
     <g id="line2d_11">
      <g>
       <use style="stroke:#000000;stroke-width:0.8;" x="57.6" xlink:href="#m94f37df4c4" y="163.723791"/>
      </g>
     </g>
     <g id="text_12">
      <!-- 15 -->
      <g transform="translate(37.875 167.52301)scale(0.1 -0.1)">
       <use xlink:href="#DejaVuSans-31"/>
       <use x="63.623047" xlink:href="#DejaVuSans-35"/>
      </g>
     </g>
    </g>
    <g id="ytick_4">
     <g id="line2d_12">
      <g>
       <use style="stroke:#000000;stroke-width:0.8;" x="57.6" xlink:href="#m94f37df4c4" y="115.306827"/>
      </g>
     </g>
     <g id="text_13">
      <!-- 20 -->
      <g transform="translate(37.875 119.106045)scale(0.1 -0.1)">
       <use xlink:href="#DejaVuSans-32"/>
       <use x="63.623047" xlink:href="#DejaVuSans-30"/>
      </g>
     </g>
    </g>
    <g id="ytick_5">
     <g id="line2d_13">
      <g>
       <use style="stroke:#000000;stroke-width:0.8;" x="57.6" xlink:href="#m94f37df4c4" y="66.889862"/>
      </g>
     </g>
     <g id="text_14">
      <!-- 25 -->
      <g transform="translate(37.875 70.689081)scale(0.1 -0.1)">
       <use xlink:href="#DejaVuSans-32"/>
       <use x="63.623047" xlink:href="#DejaVuSans-35"/>
      </g>
     </g>
    </g>
    <g id="text_15">
     <!-- CPU Utilisation (%) -->
     <g transform="translate(31.795312 221.556906)rotate(-90)scale(0.1 -0.1)">
      <defs>
       <path d="M 556 4666 
L 1191 4666 
L 1191 1831 
Q 1191 1081 1462 751 
Q 1734 422 2344 422 
Q 2950 422 3222 751 
Q 3494 1081 3494 1831 
L 3494 4666 
L 4128 4666 
L 4128 1753 
Q 4128 841 3676 375 
Q 3225 -91 2344 -91 
Q 1459 -91 1007 375 
Q 556 841 556 1753 
L 556 4666 
z
" id="DejaVuSans-55" transform="scale(0.015625)"/>
       <path d="M 603 3500 
L 1178 3500 
L 1178 0 
L 603 0 
L 603 3500 
z
M 603 4863 
L 1178 4863 
L 1178 4134 
L 603 4134 
L 603 4863 
z
" id="DejaVuSans-69" transform="scale(0.015625)"/>
       <path d="M 603 4863 
L 1178 4863 
L 1178 0 
L 603 0 
L 603 4863 
z
" id="DejaVuSans-6c" transform="scale(0.015625)"/>
       <path d="M 2834 3397 
L 2834 2853 
Q 2591 2978 2328 3040 
Q 2066 3103 1784 3103 
Q 1356 3103 1142 2972 
Q 928 2841 928 2578 
Q 928 2378 1081 2264 
Q 1234 2150 1697 2047 
L 1894 2003 
Q 2506 1872 2764 1633 
Q 3022 1394 3022 966 
Q 3022 478 2636 193 
Q 2250 -91 1575 -91 
Q 1294 -91 989 -36 
Q 684 19 347 128 
L 347 722 
Q 666 556 975 473 
Q 1284 391 1588 391 
Q 1994 391 2212 530 
Q 2431 669 2431 922 
Q 2431 1156 2273 1281 
Q 2116 1406 1581 1522 
L 1381 1569 
Q 847 1681 609 1914 
Q 372 2147 372 2553 
Q 372 3047 722 3315 
Q 1072 3584 1716 3584 
Q 2034 3584 2315 3537 
Q 2597 3491 2834 3397 
z
" id="DejaVuSans-73" transform="scale(0.015625)"/>
       <path d="M 1984 4856 
Q 1566 4138 1362 3434 
Q 1159 2731 1159 2009 
Q 1159 1288 1364 580 
Q 1569 -128 1984 -844 
L 1484 -844 
Q 1016 -109 783 600 
Q 550 1309 550 2009 
Q 550 2706 781 3412 
Q 1013 4119 1484 4856 
L 1984 4856 
z
" id="DejaVuSans-28" transform="scale(0.015625)"/>
       <path d="M 4653 2053 
Q 4381 2053 4226 1822 
Q 4072 1591 4072 1178 
Q 4072 772 4226 539 
Q 4381 306 4653 306 
Q 4919 306 5073 539 
Q 5228 772 5228 1178 
Q 5228 1588 5073 1820 
Q 4919 2053 4653 2053 
z
M 4653 2450 
Q 5147 2450 5437 2106 
Q 5728 1763 5728 1178 
Q 5728 594 5436 251 
Q 5144 -91 4653 -91 
Q 4153 -91 3862 251 
Q 3572 594 3572 1178 
Q 3572 1766 3864 2108 
Q 4156 2450 4653 2450 
z
M 1428 4353 
Q 1159 4353 1004 4120 
Q 850 3888 850 3481 
Q 850 3069 1003 2837 
Q 1156 2606 1428 2606 
Q 1700 2606 1854 2837 
Q 2009 3069 2009 3481 
Q 2009 3884 1853 4118 
Q 1697 4353 1428 4353 
z
M 4250 4750 
L 4750 4750 
L 1831 -91 
L 1331 -91 
L 4250 4750 
z
M 1428 4750 
Q 1922 4750 2215 4408 
Q 2509 4066 2509 3481 
Q 2509 2891 2217 2550 
Q 1925 2209 1428 2209 
Q 931 2209 642 2551 
Q 353 2894 353 3481 
Q 353 4063 643 4406 
Q 934 4750 1428 4750 
z
" id="DejaVuSans-25" transform="scale(0.015625)"/>
       <path d="M 513 4856 
L 1013 4856 
Q 1481 4119 1714 3412 
Q 1947 2706 1947 2009 
Q 1947 1309 1714 600 
Q 1481 -109 1013 -844 
L 513 -844 
Q 928 -128 1133 580 
Q 1338 1288 1338 2009 
Q 1338 2731 1133 3434 
Q 928 4138 513 4856 
z
" id="DejaVuSans-29" transform="scale(0.015625)"/>
      </defs>
      <use xlink:href="#DejaVuSans-43"/>
      <use x="69.824219" xlink:href="#DejaVuSans-50"/>
      <use x="130.126953" xlink:href="#DejaVuSans-55"/>
      <use x="203.320312" xlink:href="#DejaVuSans-20"/>
      <use x="235.107422" xlink:href="#DejaVuSans-55"/>
      <use x="308.300781" xlink:href="#DejaVuSans-74"/>
      <use x="347.509766" xlink:href="#DejaVuSans-69"/>
      <use x="375.292969" xlink:href="#DejaVuSans-6c"/>
      <use x="403.076172" xlink:href="#DejaVuSans-69"/>
      <use x="430.859375" xlink:href="#DejaVuSans-73"/>
      <use x="482.958984" xlink:href="#DejaVuSans-61"/>
      <use x="544.238281" xlink:href="#DejaVuSans-74"/>
      <use x="583.447266" xlink:href="#DejaVuSans-69"/>
      <use x="611.230469" xlink:href="#DejaVuSans-6f"/>
      <use x="672.412109" xlink:href="#DejaVuSans-6e"/>
      <use x="735.791016" xlink:href="#DejaVuSans-20"/>
      <use x="767.578125" xlink:href="#DejaVuSans-28"/>
      <use x="806.591797" xlink:href="#DejaVuSans-25"/>
      <use x="901.611328" xlink:href="#DejaVuSans-29"/>
     </g>
    </g>
   </g>
   <g id="LineCollection_1">
    <path clip-path="url(#p2b708d18ea)" d="M 73.832727 293.675413 
L 73.832727 291.544088 
" style="fill:none;stroke:#1f77b4;"/>
    <path clip-path="url(#p2b708d18ea)" d="M 109.905455 290.114604 
L 109.905455 288.52019 
" style="fill:none;stroke:#1f77b4;"/>
    <path clip-path="url(#p2b708d18ea)" d="M 145.978182 287.15831 
L 145.978182 284.50444 
" style="fill:none;stroke:#1f77b4;"/>
    <path clip-path="url(#p2b708d18ea)" d="M 182.050909 283.776193 
L 182.050909 280.720847 
" style="fill:none;stroke:#1f77b4;"/>
    <path clip-path="url(#p2b708d18ea)" d="M 218.123636 280.340187 
L 218.123636 277.959481 
" style="fill:none;stroke:#1f77b4;"/>
    <path clip-path="url(#p2b708d18ea)" d="M 254.196364 277.726203 
L 254.196364 272.826751 
" style="fill:none;stroke:#1f77b4;"/>
    <path clip-path="url(#p2b708d18ea)" d="M 290.269091 274.589646 
L 290.269091 271.702616 
" style="fill:none;stroke:#1f77b4;"/>
    <path clip-path="url(#p2b708d18ea)" d="M 326.341818 271.154887 
L 326.341818 267.39066 
" style="fill:none;stroke:#1f77b4;"/>
    <path clip-path="url(#p2b708d18ea)" d="M 362.414545 277.29876 
L 362.414545 243.81668 
" style="fill:none;stroke:#1f77b4;"/>
    <path clip-path="url(#p2b708d18ea)" d="M 398.487273 265.939909 
L 398.487273 246.460478 
" style="fill:none;stroke:#1f77b4;"/>
   </g>
   <g id="LineCollection_2">
    <path clip-path="url(#p2b708d18ea)" d="M 73.832727 295.357336 
L 73.832727 278.242093 
" style="fill:none;stroke:#ff7f0e;"/>
    <path clip-path="url(#p2b708d18ea)" d="M 109.905455 295.488 
L 109.905455 269.00904 
" style="fill:none;stroke:#ff7f0e;"/>
    <path clip-path="url(#p2b708d18ea)" d="M 145.978182 285.609224 
L 145.978182 281.211831 
" style="fill:none;stroke:#ff7f0e;"/>
    <path clip-path="url(#p2b708d18ea)" d="M 182.050909 281.195642 
L 182.050909 277.878698 
" style="fill:none;stroke:#ff7f0e;"/>
    <path clip-path="url(#p2b708d18ea)" d="M 218.123636 278.024134 
L 218.123636 275.433839 
" style="fill:none;stroke:#ff7f0e;"/>
    <path clip-path="url(#p2b708d18ea)" d="M 254.196364 274.31502 
L 254.196364 272.945581 
" style="fill:none;stroke:#ff7f0e;"/>
    <path clip-path="url(#p2b708d18ea)" d="M 290.269091 272.302496 
L 290.269091 268.760733 
" style="fill:none;stroke:#ff7f0e;"/>
    <path clip-path="url(#p2b708d18ea)" d="M 326.341818 269.427947 
L 326.341818 265.244243 
" style="fill:none;stroke:#ff7f0e;"/>
    <path clip-path="url(#p2b708d18ea)" d="M 362.414545 265.7375 
L 362.414545 262.930986 
" style="fill:none;stroke:#ff7f0e;"/>
    <path clip-path="url(#p2b708d18ea)" d="M 398.487273 262.530705 
L 398.487273 259.94041 
" style="fill:none;stroke:#ff7f0e;"/>
   </g>
   <g id="LineCollection_3">
    <path clip-path="url(#p2b708d18ea)" d="M 73.832727 269.203042 
L 73.832727 252.299734 
" style="fill:none;stroke:#2ca02c;"/>
    <path clip-path="url(#p2b708d18ea)" d="M 109.905455 229.528226 
L 109.905455 213.345399 
" style="fill:none;stroke:#2ca02c;"/>
    <path clip-path="url(#p2b708d18ea)" d="M 145.978182 228.637342 
L 145.978182 181.893751 
" style="fill:none;stroke:#2ca02c;"/>
    <path clip-path="url(#p2b708d18ea)" d="M 182.050909 190.439306 
L 182.050909 163.153436 
" style="fill:none;stroke:#2ca02c;"/>
    <path clip-path="url(#p2b708d18ea)" d="M 218.123636 175.421969 
L 218.123636 132.658827 
" style="fill:none;stroke:#2ca02c;"/>
    <path clip-path="url(#p2b708d18ea)" d="M 254.196364 143.17847 
L 254.196364 115.71069 
" style="fill:none;stroke:#2ca02c;"/>
    <path clip-path="url(#p2b708d18ea)" d="M 290.269091 116.27824 
L 290.269091 94.581292 
" style="fill:none;stroke:#2ca02c;"/>
    <path clip-path="url(#p2b708d18ea)" d="M 326.341818 103.165864 
L 326.341818 84.647193 
" style="fill:none;stroke:#2ca02c;"/>
    <path clip-path="url(#p2b708d18ea)" d="M 362.414545 98.416503 
L 362.414545 53.568 
" style="fill:none;stroke:#2ca02c;"/>
    <path clip-path="url(#p2b708d18ea)" d="M 398.487273 71.556127 
L 398.487273 57.769236 
" style="fill:none;stroke:#2ca02c;"/>
   </g>
   <g id="line2d_14">
    <defs>
     <path d="M 5 0 
L -5 -0 
" id="m85cd36ad8f" style="stroke:#1f77b4;"/>
    </defs>
    <g clip-path="url(#p2b708d18ea)">
     <use style="fill:#1f77b4;stroke:#1f77b4;" x="73.832727" xlink:href="#m85cd36ad8f" y="293.675413"/>
     <use style="fill:#1f77b4;stroke:#1f77b4;" x="109.905455" xlink:href="#m85cd36ad8f" y="290.114604"/>
     <use style="fill:#1f77b4;stroke:#1f77b4;" x="145.978182" xlink:href="#m85cd36ad8f" y="287.15831"/>
     <use style="fill:#1f77b4;stroke:#1f77b4;" x="182.050909" xlink:href="#m85cd36ad8f" y="283.776193"/>
     <use style="fill:#1f77b4;stroke:#1f77b4;" x="218.123636" xlink:href="#m85cd36ad8f" y="280.340187"/>
     <use style="fill:#1f77b4;stroke:#1f77b4;" x="254.196364" xlink:href="#m85cd36ad8f" y="277.726203"/>
     <use style="fill:#1f77b4;stroke:#1f77b4;" x="290.269091" xlink:href="#m85cd36ad8f" y="274.589646"/>
     <use style="fill:#1f77b4;stroke:#1f77b4;" x="326.341818" xlink:href="#m85cd36ad8f" y="271.154887"/>
     <use style="fill:#1f77b4;stroke:#1f77b4;" x="362.414545" xlink:href="#m85cd36ad8f" y="277.29876"/>
     <use style="fill:#1f77b4;stroke:#1f77b4;" x="398.487273" xlink:href="#m85cd36ad8f" y="265.939909"/>
    </g>
   </g>
   <g id="line2d_15">
    <g clip-path="url(#p2b708d18ea)">
     <use style="fill:#1f77b4;stroke:#1f77b4;" x="73.832727" xlink:href="#m85cd36ad8f" y="291.544088"/>
     <use style="fill:#1f77b4;stroke:#1f77b4;" x="109.905455" xlink:href="#m85cd36ad8f" y="288.52019"/>
     <use style="fill:#1f77b4;stroke:#1f77b4;" x="145.978182" xlink:href="#m85cd36ad8f" y="284.50444"/>
     <use style="fill:#1f77b4;stroke:#1f77b4;" x="182.050909" xlink:href="#m85cd36ad8f" y="280.720847"/>
     <use style="fill:#1f77b4;stroke:#1f77b4;" x="218.123636" xlink:href="#m85cd36ad8f" y="277.959481"/>
     <use style="fill:#1f77b4;stroke:#1f77b4;" x="254.196364" xlink:href="#m85cd36ad8f" y="272.826751"/>
     <use style="fill:#1f77b4;stroke:#1f77b4;" x="290.269091" xlink:href="#m85cd36ad8f" y="271.702616"/>
     <use style="fill:#1f77b4;stroke:#1f77b4;" x="326.341818" xlink:href="#m85cd36ad8f" y="267.39066"/>
     <use style="fill:#1f77b4;stroke:#1f77b4;" x="362.414545" xlink:href="#m85cd36ad8f" y="243.81668"/>
     <use style="fill:#1f77b4;stroke:#1f77b4;" x="398.487273" xlink:href="#m85cd36ad8f" y="246.460478"/>
    </g>
   </g>
   <g id="line2d_16">
    <defs>
     <path d="M 5 0 
L -5 -0 
" id="mfa56748d84" style="stroke:#ff7f0e;"/>
    </defs>
    <g clip-path="url(#p2b708d18ea)">
     <use style="fill:#ff7f0e;stroke:#ff7f0e;" x="73.832727" xlink:href="#mfa56748d84" y="295.357336"/>
     <use style="fill:#ff7f0e;stroke:#ff7f0e;" x="109.905455" xlink:href="#mfa56748d84" y="295.488"/>
     <use style="fill:#ff7f0e;stroke:#ff7f0e;" x="145.978182" xlink:href="#mfa56748d84" y="285.609224"/>
     <use style="fill:#ff7f0e;stroke:#ff7f0e;" x="182.050909" xlink:href="#mfa56748d84" y="281.195642"/>
     <use style="fill:#ff7f0e;stroke:#ff7f0e;" x="218.123636" xlink:href="#mfa56748d84" y="278.024134"/>
     <use style="fill:#ff7f0e;stroke:#ff7f0e;" x="254.196364" xlink:href="#mfa56748d84" y="274.31502"/>
     <use style="fill:#ff7f0e;stroke:#ff7f0e;" x="290.269091" xlink:href="#mfa56748d84" y="272.302496"/>
     <use style="fill:#ff7f0e;stroke:#ff7f0e;" x="326.341818" xlink:href="#mfa56748d84" y="269.427947"/>
     <use style="fill:#ff7f0e;stroke:#ff7f0e;" x="362.414545" xlink:href="#mfa56748d84" y="265.7375"/>
     <use style="fill:#ff7f0e;stroke:#ff7f0e;" x="398.487273" xlink:href="#mfa56748d84" y="262.530705"/>
    </g>
   </g>
   <g id="line2d_17">
    <g clip-path="url(#p2b708d18ea)">
     <use style="fill:#ff7f0e;stroke:#ff7f0e;" x="73.832727" xlink:href="#mfa56748d84" y="278.242093"/>
     <use style="fill:#ff7f0e;stroke:#ff7f0e;" x="109.905455" xlink:href="#mfa56748d84" y="269.00904"/>
     <use style="fill:#ff7f0e;stroke:#ff7f0e;" x="145.978182" xlink:href="#mfa56748d84" y="281.211831"/>
     <use style="fill:#ff7f0e;stroke:#ff7f0e;" x="182.050909" xlink:href="#mfa56748d84" y="277.878698"/>
     <use style="fill:#ff7f0e;stroke:#ff7f0e;" x="218.123636" xlink:href="#mfa56748d84" y="275.433839"/>
     <use style="fill:#ff7f0e;stroke:#ff7f0e;" x="254.196364" xlink:href="#mfa56748d84" y="272.945581"/>
     <use style="fill:#ff7f0e;stroke:#ff7f0e;" x="290.269091" xlink:href="#mfa56748d84" y="268.760733"/>
     <use style="fill:#ff7f0e;stroke:#ff7f0e;" x="326.341818" xlink:href="#mfa56748d84" y="265.244243"/>
     <use style="fill:#ff7f0e;stroke:#ff7f0e;" x="362.414545" xlink:href="#mfa56748d84" y="262.930986"/>
     <use style="fill:#ff7f0e;stroke:#ff7f0e;" x="398.487273" xlink:href="#mfa56748d84" y="259.94041"/>
    </g>
   </g>
   <g id="line2d_18">
    <defs>
     <path d="M 5 0 
L -5 -0 
" id="m5ad0a9eb30" style="stroke:#2ca02c;"/>
    </defs>
    <g clip-path="url(#p2b708d18ea)">
     <use style="fill:#2ca02c;stroke:#2ca02c;" x="73.832727" xlink:href="#m5ad0a9eb30" y="269.203042"/>
     <use style="fill:#2ca02c;stroke:#2ca02c;" x="109.905455" xlink:href="#m5ad0a9eb30" y="229.528226"/>
     <use style="fill:#2ca02c;stroke:#2ca02c;" x="145.978182" xlink:href="#m5ad0a9eb30" y="228.637342"/>
     <use style="fill:#2ca02c;stroke:#2ca02c;" x="182.050909" xlink:href="#m5ad0a9eb30" y="190.439306"/>
     <use style="fill:#2ca02c;stroke:#2ca02c;" x="218.123636" xlink:href="#m5ad0a9eb30" y="175.421969"/>
     <use style="fill:#2ca02c;stroke:#2ca02c;" x="254.196364" xlink:href="#m5ad0a9eb30" y="143.17847"/>
     <use style="fill:#2ca02c;stroke:#2ca02c;" x="290.269091" xlink:href="#m5ad0a9eb30" y="116.27824"/>
     <use style="fill:#2ca02c;stroke:#2ca02c;" x="326.341818" xlink:href="#m5ad0a9eb30" y="103.165864"/>
     <use style="fill:#2ca02c;stroke:#2ca02c;" x="362.414545" xlink:href="#m5ad0a9eb30" y="98.416503"/>
     <use style="fill:#2ca02c;stroke:#2ca02c;" x="398.487273" xlink:href="#m5ad0a9eb30" y="71.556127"/>
    </g>
   </g>
   <g id="line2d_19">
    <g clip-path="url(#p2b708d18ea)">
     <use style="fill:#2ca02c;stroke:#2ca02c;" x="73.832727" xlink:href="#m5ad0a9eb30" y="252.299734"/>
     <use style="fill:#2ca02c;stroke:#2ca02c;" x="109.905455" xlink:href="#m5ad0a9eb30" y="213.345399"/>
     <use style="fill:#2ca02c;stroke:#2ca02c;" x="145.978182" xlink:href="#m5ad0a9eb30" y="181.893751"/>
     <use style="fill:#2ca02c;stroke:#2ca02c;" x="182.050909" xlink:href="#m5ad0a9eb30" y="163.153436"/>
     <use style="fill:#2ca02c;stroke:#2ca02c;" x="218.123636" xlink:href="#m5ad0a9eb30" y="132.658827"/>
     <use style="fill:#2ca02c;stroke:#2ca02c;" x="254.196364" xlink:href="#m5ad0a9eb30" y="115.71069"/>
     <use style="fill:#2ca02c;stroke:#2ca02c;" x="290.269091" xlink:href="#m5ad0a9eb30" y="94.581292"/>
     <use style="fill:#2ca02c;stroke:#2ca02c;" x="326.341818" xlink:href="#m5ad0a9eb30" y="84.647193"/>
     <use style="fill:#2ca02c;stroke:#2ca02c;" x="362.414545" xlink:href="#m5ad0a9eb30" y="53.568"/>
     <use style="fill:#2ca02c;stroke:#2ca02c;" x="398.487273" xlink:href="#m5ad0a9eb30" y="57.769236"/>
    </g>
   </g>
   <g id="line2d_20">
    <defs>
     <path d="M -3 3 
L 3 -3 
M -3 -3 
L 3 3 
" id="mb35a494799" style="stroke:#1f77b4;"/>
    </defs>
    <g clip-path="url(#p2b708d18ea)">
     <use style="fill:#1f77b4;stroke:#1f77b4;" x="73.832727" xlink:href="#mb35a494799" y="292.60975"/>
     <use style="fill:#1f77b4;stroke:#1f77b4;" x="109.905455" xlink:href="#mb35a494799" y="289.317397"/>
     <use style="fill:#1f77b4;stroke:#1f77b4;" x="145.978182" xlink:href="#mb35a494799" y="285.831375"/>
     <use style="fill:#1f77b4;stroke:#1f77b4;" x="182.050909" xlink:href="#mb35a494799" y="282.24852"/>
     <use style="fill:#1f77b4;stroke:#1f77b4;" x="218.123636" xlink:href="#mb35a494799" y="279.149834"/>
     <use style="fill:#1f77b4;stroke:#1f77b4;" x="254.196364" xlink:href="#mb35a494799" y="275.276477"/>
     <use style="fill:#1f77b4;stroke:#1f77b4;" x="290.269091" xlink:href="#mb35a494799" y="273.146131"/>
     <use style="fill:#1f77b4;stroke:#1f77b4;" x="326.341818" xlink:href="#mb35a494799" y="269.272774"/>
     <use style="fill:#1f77b4;stroke:#1f77b4;" x="362.414545" xlink:href="#mb35a494799" y="260.55772"/>
     <use style="fill:#1f77b4;stroke:#1f77b4;" x="398.487273" xlink:href="#mb35a494799" y="256.200193"/>
    </g>
   </g>
   <g id="line2d_21">
    <defs>
     <path d="M -3 3 
L 3 -3 
M -3 -3 
L 3 3 
" id="m3dec9c8dd8" style="stroke:#ff7f0e;"/>
    </defs>
    <g clip-path="url(#p2b708d18ea)">
     <use style="fill:#ff7f0e;stroke:#ff7f0e;" x="73.832727" xlink:href="#m3dec9c8dd8" y="286.799715"/>
     <use style="fill:#ff7f0e;stroke:#ff7f0e;" x="109.905455" xlink:href="#m3dec9c8dd8" y="282.24852"/>
     <use style="fill:#ff7f0e;stroke:#ff7f0e;" x="145.978182" xlink:href="#m3dec9c8dd8" y="283.410527"/>
     <use style="fill:#ff7f0e;stroke:#ff7f0e;" x="182.050909" xlink:href="#m3dec9c8dd8" y="279.53717"/>
     <use style="fill:#ff7f0e;stroke:#ff7f0e;" x="218.123636" xlink:href="#m3dec9c8dd8" y="276.728986"/>
     <use style="fill:#ff7f0e;stroke:#ff7f0e;" x="254.196364" xlink:href="#m3dec9c8dd8" y="273.6303"/>
     <use style="fill:#ff7f0e;stroke:#ff7f0e;" x="290.269091" xlink:href="#m3dec9c8dd8" y="270.531615"/>
     <use style="fill:#ff7f0e;stroke:#ff7f0e;" x="326.341818" xlink:href="#m3dec9c8dd8" y="267.336095"/>
     <use style="fill:#ff7f0e;stroke:#ff7f0e;" x="362.414545" xlink:href="#m3dec9c8dd8" y="264.334243"/>
     <use style="fill:#ff7f0e;stroke:#ff7f0e;" x="398.487273" xlink:href="#m3dec9c8dd8" y="261.235557"/>
    </g>
   </g>
   <g id="line2d_22">
    <defs>
     <path d="M -3 3 
L 3 -3 
M -3 -3 
L 3 3 
" id="mb9e92cfab7" style="stroke:#2ca02c;"/>
    </defs>
    <g clip-path="url(#p2b708d18ea)">
     <use style="fill:#2ca02c;stroke:#2ca02c;" x="73.832727" xlink:href="#mb9e92cfab7" y="260.751388"/>
     <use style="fill:#2ca02c;stroke:#2ca02c;" x="109.905455" xlink:href="#mb9e92cfab7" y="221.436813"/>
     <use style="fill:#2ca02c;stroke:#2ca02c;" x="145.978182" xlink:href="#mb9e92cfab7" y="205.265547"/>
     <use style="fill:#2ca02c;stroke:#2ca02c;" x="182.050909" xlink:href="#mb9e92cfab7" y="176.796371"/>
     <use style="fill:#2ca02c;stroke:#2ca02c;" x="218.123636" xlink:href="#mb9e92cfab7" y="154.040398"/>
     <use style="fill:#2ca02c;stroke:#2ca02c;" x="254.196364" xlink:href="#mb9e92cfab7" y="129.44458"/>
     <use style="fill:#2ca02c;stroke:#2ca02c;" x="290.269091" xlink:href="#mb9e92cfab7" y="105.429766"/>
     <use style="fill:#2ca02c;stroke:#2ca02c;" x="326.341818" xlink:href="#mb9e92cfab7" y="93.906528"/>
     <use style="fill:#2ca02c;stroke:#2ca02c;" x="362.414545" xlink:href="#mb9e92cfab7" y="75.992251"/>
     <use style="fill:#2ca02c;stroke:#2ca02c;" x="398.487273" xlink:href="#mb9e92cfab7" y="64.662682"/>
    </g>
   </g>
   <g id="patch_3">
    <path d="M 57.6 307.584 
L 57.6 41.472 
" style="fill:none;stroke:#000000;stroke-linecap:square;stroke-linejoin:miter;stroke-width:0.8;"/>
   </g>
   <g id="patch_4">
    <path d="M 414.72 307.584 
L 414.72 41.472 
" style="fill:none;stroke:#000000;stroke-linecap:square;stroke-linejoin:miter;stroke-width:0.8;"/>
   </g>
   <g id="patch_5">
    <path d="M 57.6 307.584 
L 414.72 307.584 
" style="fill:none;stroke:#000000;stroke-linecap:square;stroke-linejoin:miter;stroke-width:0.8;"/>
   </g>
   <g id="patch_6">
    <path d="M 57.6 41.472 
L 414.72 41.472 
" style="fill:none;stroke:#000000;stroke-linecap:square;stroke-linejoin:miter;stroke-width:0.8;"/>
   </g>
   <g id="text_16">
    <!-- CPU Utilisation Vs. Packet Count -->
    <g transform="translate(139.714687 35.472)scale(0.12 -0.12)">
     <defs>
      <path d="M 1831 0 
L 50 4666 
L 709 4666 
L 2188 738 
L 3669 4666 
L 4325 4666 
L 2547 0 
L 1831 0 
z
" id="DejaVuSans-56" transform="scale(0.015625)"/>
      <path d="M 684 794 
L 1344 794 
L 1344 0 
L 684 0 
L 684 794 
z
" id="DejaVuSans-2e" transform="scale(0.015625)"/>
     </defs>
     <use xlink:href="#DejaVuSans-43"/>
     <use x="69.824219" xlink:href="#DejaVuSans-50"/>
     <use x="130.126953" xlink:href="#DejaVuSans-55"/>
     <use x="203.320312" xlink:href="#DejaVuSans-20"/>
     <use x="235.107422" xlink:href="#DejaVuSans-55"/>
     <use x="308.300781" xlink:href="#DejaVuSans-74"/>
     <use x="347.509766" xlink:href="#DejaVuSans-69"/>
     <use x="375.292969" xlink:href="#DejaVuSans-6c"/>
     <use x="403.076172" xlink:href="#DejaVuSans-69"/>
     <use x="430.859375" xlink:href="#DejaVuSans-73"/>
     <use x="482.958984" xlink:href="#DejaVuSans-61"/>
     <use x="544.238281" xlink:href="#DejaVuSans-74"/>
     <use x="583.447266" xlink:href="#DejaVuSans-69"/>
     <use x="611.230469" xlink:href="#DejaVuSans-6f"/>
     <use x="672.412109" xlink:href="#DejaVuSans-6e"/>
     <use x="735.791016" xlink:href="#DejaVuSans-20"/>
     <use x="767.578125" xlink:href="#DejaVuSans-56"/>
     <use x="835.986328" xlink:href="#DejaVuSans-73"/>
     <use x="888.085938" xlink:href="#DejaVuSans-2e"/>
     <use x="919.873047" xlink:href="#DejaVuSans-20"/>
     <use x="951.660156" xlink:href="#DejaVuSans-50"/>
     <use x="1007.462891" xlink:href="#DejaVuSans-61"/>
     <use x="1068.742188" xlink:href="#DejaVuSans-63"/>
     <use x="1123.722656" xlink:href="#DejaVuSans-6b"/>
     <use x="1178.007812" xlink:href="#DejaVuSans-65"/>
     <use x="1239.53125" xlink:href="#DejaVuSans-74"/>
     <use x="1278.740234" xlink:href="#DejaVuSans-20"/>
     <use x="1310.527344" xlink:href="#DejaVuSans-43"/>
     <use x="1380.351562" xlink:href="#DejaVuSans-6f"/>
     <use x="1441.533203" xlink:href="#DejaVuSans-75"/>
     <use x="1504.912109" xlink:href="#DejaVuSans-6e"/>
     <use x="1568.291016" xlink:href="#DejaVuSans-74"/>
    </g>
   </g>
   <g id="legend_1">
    <g id="patch_7">
     <path d="M 64.6 93.506375 
L 134.735938 93.506375 
Q 136.735938 93.506375 136.735938 91.506375 
L 136.735938 48.472 
Q 136.735938 46.472 134.735938 46.472 
L 64.6 46.472 
Q 62.6 46.472 62.6 48.472 
L 62.6 91.506375 
Q 62.6 93.506375 64.6 93.506375 
z
" style="fill:#ffffff;opacity:0.8;stroke:#cccccc;stroke-linejoin:miter;"/>
    </g>
    <g id="LineCollection_4">
     <path d="M 76.6 59.570438 
L 76.6 49.570438 
" style="fill:none;stroke:#1f77b4;"/>
    </g>
    <g id="line2d_23">
     <g>
      <use style="fill:#1f77b4;stroke:#1f77b4;" x="76.6" xlink:href="#m85cd36ad8f" y="59.570438"/>
     </g>
    </g>
    <g id="line2d_24">
     <g>
      <use style="fill:#1f77b4;stroke:#1f77b4;" x="76.6" xlink:href="#m85cd36ad8f" y="49.570438"/>
     </g>
    </g>
    <g id="line2d_25"/>
    <g id="line2d_26">
     <g>
      <use style="fill:#1f77b4;stroke:#1f77b4;" x="76.6" xlink:href="#mb35a494799" y="54.570438"/>
     </g>
    </g>
    <g id="text_17">
     <!-- No Proc -->
     <g transform="translate(94.6 58.070438)scale(0.1 -0.1)">
      <defs>
       <path d="M 628 4666 
L 1478 4666 
L 3547 763 
L 3547 4666 
L 4159 4666 
L 4159 0 
L 3309 0 
L 1241 3903 
L 1241 0 
L 628 0 
L 628 4666 
z
" id="DejaVuSans-4e" transform="scale(0.015625)"/>
       <path d="M 2631 2963 
Q 2534 3019 2420 3045 
Q 2306 3072 2169 3072 
Q 1681 3072 1420 2755 
Q 1159 2438 1159 1844 
L 1159 0 
L 581 0 
L 581 3500 
L 1159 3500 
L 1159 2956 
Q 1341 3275 1631 3429 
Q 1922 3584 2338 3584 
Q 2397 3584 2469 3576 
Q 2541 3569 2628 3553 
L 2631 2963 
z
" id="DejaVuSans-72" transform="scale(0.015625)"/>
      </defs>
      <use xlink:href="#DejaVuSans-4e"/>
      <use x="74.804688" xlink:href="#DejaVuSans-6f"/>
      <use x="135.986328" xlink:href="#DejaVuSans-20"/>
      <use x="167.773438" xlink:href="#DejaVuSans-50"/>
      <use x="226.326172" xlink:href="#DejaVuSans-72"/>
      <use x="265.189453" xlink:href="#DejaVuSans-6f"/>
      <use x="326.371094" xlink:href="#DejaVuSans-63"/>
     </g>
    </g>
    <g id="LineCollection_5">
     <path d="M 76.6 74.248563 
L 76.6 64.248563 
" style="fill:none;stroke:#ff7f0e;"/>
    </g>
    <g id="line2d_27">
     <g>
      <use style="fill:#ff7f0e;stroke:#ff7f0e;" x="76.6" xlink:href="#mfa56748d84" y="74.248563"/>
     </g>
    </g>
    <g id="line2d_28">
     <g>
      <use style="fill:#ff7f0e;stroke:#ff7f0e;" x="76.6" xlink:href="#mfa56748d84" y="64.248563"/>
     </g>
    </g>
    <g id="line2d_29"/>
    <g id="line2d_30">
     <g>
      <use style="fill:#ff7f0e;stroke:#ff7f0e;" x="76.6" xlink:href="#m3dec9c8dd8" y="69.248563"/>
     </g>
    </g>
    <g id="text_18">
     <!-- CHERI -->
     <g transform="translate(94.6 72.748563)scale(0.1 -0.1)">
      <defs>
       <path d="M 628 4666 
L 1259 4666 
L 1259 2753 
L 3553 2753 
L 3553 4666 
L 4184 4666 
L 4184 0 
L 3553 0 
L 3553 2222 
L 1259 2222 
L 1259 0 
L 628 0 
L 628 4666 
z
" id="DejaVuSans-48" transform="scale(0.015625)"/>
       <path d="M 628 4666 
L 3578 4666 
L 3578 4134 
L 1259 4134 
L 1259 2753 
L 3481 2753 
L 3481 2222 
L 1259 2222 
L 1259 531 
L 3634 531 
L 3634 0 
L 628 0 
L 628 4666 
z
" id="DejaVuSans-45" transform="scale(0.015625)"/>
       <path d="M 2841 2188 
Q 3044 2119 3236 1894 
Q 3428 1669 3622 1275 
L 4263 0 
L 3584 0 
L 2988 1197 
Q 2756 1666 2539 1819 
Q 2322 1972 1947 1972 
L 1259 1972 
L 1259 0 
L 628 0 
L 628 4666 
L 2053 4666 
Q 2853 4666 3247 4331 
Q 3641 3997 3641 3322 
Q 3641 2881 3436 2590 
Q 3231 2300 2841 2188 
z
M 1259 4147 
L 1259 2491 
L 2053 2491 
Q 2509 2491 2742 2702 
Q 2975 2913 2975 3322 
Q 2975 3731 2742 3939 
Q 2509 4147 2053 4147 
L 1259 4147 
z
" id="DejaVuSans-52" transform="scale(0.015625)"/>
       <path d="M 628 4666 
L 1259 4666 
L 1259 0 
L 628 0 
L 628 4666 
z
" id="DejaVuSans-49" transform="scale(0.015625)"/>
      </defs>
      <use xlink:href="#DejaVuSans-43"/>
      <use x="69.824219" xlink:href="#DejaVuSans-48"/>
      <use x="145.019531" xlink:href="#DejaVuSans-45"/>
      <use x="208.203125" xlink:href="#DejaVuSans-52"/>
      <use x="277.685547" xlink:href="#DejaVuSans-49"/>
     </g>
    </g>
    <g id="LineCollection_6">
     <path d="M 76.6 88.926688 
L 76.6 78.926688 
" style="fill:none;stroke:#2ca02c;"/>
    </g>
    <g id="line2d_31">
     <g>
      <use style="fill:#2ca02c;stroke:#2ca02c;" x="76.6" xlink:href="#m5ad0a9eb30" y="88.926688"/>
     </g>
    </g>
    <g id="line2d_32">
     <g>
      <use style="fill:#2ca02c;stroke:#2ca02c;" x="76.6" xlink:href="#m5ad0a9eb30" y="78.926688"/>
     </g>
    </g>
    <g id="line2d_33"/>
    <g id="line2d_34">
     <g>
      <use style="fill:#2ca02c;stroke:#2ca02c;" x="76.6" xlink:href="#mb9e92cfab7" y="83.926688"/>
     </g>
    </g>
    <g id="text_19">
     <!-- IPC -->
     <g transform="translate(94.6 87.426688)scale(0.1 -0.1)">
      <use xlink:href="#DejaVuSans-49"/>
      <use x="29.492188" xlink:href="#DejaVuSans-50"/>
      <use x="89.794922" xlink:href="#DejaVuSans-43"/>
     </g>
    </g>
   </g>
  </g>
 </g>
 <defs>
  <clipPath id="p2b708d18ea">
   <rect height="266.112" width="357.12" x="57.6" y="41.472"/>
  </clipPath>
 </defs>
</svg>
